<svg xmlns="http://www.w3.org/2000/svg" xmlns:xlink="http://www.w3.org/1999/xlink" width="500" zoomAndPan="magnify" viewBox="0 0 375 374.999991" height="500" preserveAspectRatio="xMidYMid meet" version="1.0"><defs><g/></defs><rect x="-37.5" width="450" fill="#ffffff" y="-37.499999" height="449.999989" fill-opacity="1"/><rect x="-37.5" width="450" fill="#ffffff" y="-37.499999" height="449.999989" fill-opacity="1"/><rect x="-37.5" width="450" fill="#ffffff" y="-37.499999" height="449.999989" fill-opacity="1"/><g fill="#840d53" fill-opacity="1"><g transform="translate(-9.907625, 259.321961)"><g><path d="M 39.90625 -40.203125 L 38 -36.25 C 38 -33.425781 41.96875 -30.722656 49.90625 -28.140625 C 57.851562 -25.554688 66.578125 -24.265625 76.078125 -24.265625 C 85.578125 -24.265625 96.023438 -25.675781 107.421875 -28.5 C 118.828125 -31.332031 128.742188 -34.789062 137.171875 -38.875 C 145.609375 -42.96875 152.578125 -47.253906 158.078125 -51.734375 C 163.585938 -56.222656 166.34375 -60.125 166.34375 -63.4375 C 166.34375 -67.625 161.46875 -71.519531 151.71875 -75.125 C 141.976562 -78.738281 127.828125 -82.710938 109.265625 -87.046875 C 90.703125 -91.378906 77.109375 -96.859375 68.484375 -103.484375 C 59.859375 -110.109375 55.546875 -118.171875 55.546875 -127.671875 C 55.546875 -137.179688 58.957031 -146.269531 65.78125 -154.9375 C 72.601562 -163.613281 81.492188 -171.3125 92.453125 -178.03125 C 103.410156 -184.757812 115.375 -190.753906 128.34375 -196.015625 C 155.132812 -206.828125 179.984375 -212.234375 202.890625 -212.234375 C 211.660156 -212.234375 219.40625 -211.457031 226.125 -209.90625 C 238.988281 -206.882812 245.421875 -202.890625 245.421875 -197.921875 C 245.421875 -192.953125 244.984375 -189.5625 244.109375 -187.75 C 243.234375 -185.945312 242.523438 -184.753906 241.984375 -184.171875 C 241.453125 -183.585938 240.769531 -183.003906 239.9375 -182.421875 C 239.113281 -181.835938 238.503906 -181.398438 238.109375 -181.109375 C 233.828125 -177.503906 222.085938 -175.257812 202.890625 -174.375 C 196.265625 -174.082031 192.65625 -173.742188 192.0625 -173.359375 C 191.476562 -172.972656 190.96875 -172.78125 190.53125 -172.78125 C 190.09375 -172.78125 189.582031 -173.164062 189 -173.9375 C 188.414062 -174.71875 188.125 -175.984375 188.125 -177.734375 C 188.125 -179.492188 190.023438 -182.710938 193.828125 -187.390625 C 181.929688 -186.710938 169.234375 -183.984375 155.734375 -179.203125 C 142.242188 -174.429688 130.53125 -169.046875 120.59375 -163.046875 C 110.65625 -157.054688 102.367188 -151.160156 95.734375 -145.359375 C 89.109375 -139.566406 85.796875 -135.476562 85.796875 -133.09375 C 85.796875 -130.707031 86.53125 -128.734375 88 -127.171875 C 92.09375 -122.785156 103.441406 -118.203125 122.046875 -113.421875 C 141.347656 -108.453125 154.210938 -104.457031 160.640625 -101.4375 C 167.078125 -98.414062 172.410156 -95.539062 176.640625 -92.8125 C 180.878906 -90.082031 184.269531 -87.304688 186.8125 -84.484375 C 192.75 -77.660156 195.71875 -70.738281 195.71875 -63.71875 C 195.71875 -56.707031 193.84375 -50.128906 190.09375 -43.984375 C 186.34375 -37.847656 180.691406 -31.90625 173.140625 -26.15625 C 165.585938 -20.414062 156.695312 -15.300781 146.46875 -10.8125 C 124.050781 -0.78125 97.347656 4.234375 66.359375 4.234375 C 43.753906 4.234375 29.332031 -1.753906 23.09375 -13.734375 C 21.4375 -16.753906 20.609375 -19.894531 20.609375 -23.15625 C 20.609375 -26.425781 21.363281 -29.375 22.875 -32 C 24.382812 -34.632812 26.210938 -36.632812 28.359375 -38 C 32.546875 -40.632812 35.515625 -41.953125 37.265625 -41.953125 C 39.023438 -41.953125 39.90625 -41.367188 39.90625 -40.203125 Z M 39.90625 -40.203125 "/></g></g><g transform="translate(190.203324, 259.321961)"><g><path d="M 54.59375 -97.125 C 64 -103.601562 73.234375 -108.597656 82.296875 -112.109375 C 91.359375 -115.617188 99.203125 -117.375 105.828125 -117.375 C 112.453125 -117.375 116.691406 -115.472656 118.546875 -111.671875 C 122.347656 -116.054688 127.070312 -118.394531 132.71875 -118.6875 C 134.375 -118.789062 136.421875 -118.84375 138.859375 -118.84375 C 141.296875 -118.84375 142.804688 -118.523438 143.390625 -117.890625 C 143.972656 -117.253906 144.507812 -116.054688 145 -114.296875 C 145.488281 -112.546875 145.78125 -111.570312 145.875 -111.375 C 145.976562 -111.1875 146.03125 -110.875 146.03125 -110.4375 C 146.03125 -110 145.785156 -109.460938 145.296875 -108.828125 C 144.804688 -108.191406 144.242188 -107.582031 143.609375 -107 C 142.972656 -106.414062 142.609375 -106.070312 142.515625 -105.96875 C 120.984375 -75.082031 98.960938 -39.859375 76.453125 -0.296875 C 99.640625 -20.859375 120.394531 -35.617188 138.71875 -44.578125 C 139.882812 -45.160156 141.003906 -45.453125 142.078125 -45.453125 C 143.640625 -45.453125 144.660156 -44.453125 145.140625 -42.453125 C 145.628906 -40.460938 145.875 -37.613281 145.875 -33.90625 C 145.875 -30.207031 145.65625 -27.914062 145.21875 -27.03125 C 144.78125 -26.15625 142.515625 -24.398438 138.421875 -21.765625 C 134.328125 -19.140625 129.015625 -15.734375 122.484375 -11.546875 C 115.960938 -7.359375 109.046875 -2.726562 101.734375 2.34375 C 84.191406 14.519531 69.769531 27.332031 58.46875 40.78125 C 43.851562 58.414062 33.378906 72.644531 27.046875 83.46875 C 24.703125 87.65625 20.753906 89.75 15.203125 89.75 C 4.191406 89.75 -1.3125 84.535156 -1.3125 74.109375 C -1.3125 63.484375 3.898438 52.617188 14.328125 41.515625 C 22.117188 33.234375 29.28125 26.457031 35.8125 21.1875 C 42.34375 15.925781 45.898438 12.957031 46.484375 12.28125 C 53.691406 1.457031 63.484375 -13.890625 75.859375 -33.765625 C 65.335938 -22.753906 55.128906 -13.984375 45.234375 -7.453125 C 35.347656 -0.921875 27.96875 2.34375 23.09375 2.34375 C 8.1875 2.34375 0.734375 -4.039062 0.734375 -16.8125 C 0.734375 -26.945312 3.3125 -37.175781 8.46875 -47.5 C 13.632812 -57.832031 20.257812 -67.066406 28.34375 -75.203125 C 36.4375 -83.335938 45.1875 -90.644531 54.59375 -97.125 Z M 110.21875 -100.859375 C 98.90625 -98.421875 88.28125 -94.398438 78.34375 -88.796875 C 68.40625 -83.191406 60.21875 -77.195312 53.78125 -70.8125 C 47.351562 -64.4375 41.800781 -57.882812 37.125 -51.15625 C 28.351562 -38.582031 23.96875 -28.835938 23.96875 -21.921875 C 23.96875 -20.265625 24.378906 -19.4375 25.203125 -19.4375 C 26.035156 -19.4375 27.890625 -20.3125 30.765625 -22.0625 C 33.640625 -23.820312 37.707031 -26.820312 42.96875 -31.0625 C 48.238281 -35.300781 54.085938 -40.34375 60.515625 -46.1875 C 75.421875 -59.925781 91.988281 -78.148438 110.21875 -100.859375 Z M 110.21875 -100.859375 "/></g></g><g transform="translate(315.473655, 259.321961)"><g><path d="M 21.921875 -1.46875 C 21.921875 -7.40625 24.257812 -12.6875 28.9375 -17.3125 C 33.613281 -21.945312 38.195312 -24.265625 42.6875 -24.265625 C 50.769531 -24.265625 54.8125 -20.953125 54.8125 -14.328125 C 54.8125 -8.867188 52.519531 -3.582031 47.9375 1.53125 C 43.363281 6.644531 38.203125 9.203125 32.453125 9.203125 C 25.429688 9.203125 21.921875 5.644531 21.921875 -1.46875 Z M 21.921875 -1.46875 "/></g></g></g></svg>